<?xml version="1.0" standalone="no"?>
<!DOCTYPE svg PUBLIC "-//W3C//DTD SVG 20010904//EN"
 "http://www.w3.org/TR/2001/REC-SVG-20010904/DTD/svg10.dtd">
<svg version="1.0" xmlns="http://www.w3.org/2000/svg"
 width="512.000000pt" height="512.000000pt" viewBox="0 0 512.000000 512.000000"
 preserveAspectRatio="xMidYMid meet">
<metadata>
Created by potrace 1.14, written by Peter Selinger 2001-2017
</metadata>
<g transform="translate(0.000000,512.000000) scale(0.100000,-0.100000)"
fill="#000000" stroke="none">
<path d="M2378 5115 c-2 -1 -39 -5 -82 -9 -44 -4 -82 -9 -85 -11 -4 -2 -34 -7
-66 -10 -117 -14 -472 -111 -499 -136 -6 -5 -16 -9 -23 -9 -8 0 -44 -14 -81
-31 -37 -17 -83 -38 -102 -47 -63 -28 -243 -133 -325 -190 -368 -254 -654
-582 -850 -977 -58 -118 -146 -336 -159 -396 -3 -13 -19 -76 -35 -139 -53
-210 -66 -330 -65 -600 0 -281 13 -395 74 -635 78 -306 217 -605 405 -867 31
-45 33 -50 22 -85 -6 -23 -11 -139 -11 -298 -1 -280 2 -301 60 -417 32 -62
125 -156 194 -195 109 -60 138 -63 642 -63 299 0 466 4 485 11 15 5 39 21 53
34 l25 24 99 -20 c176 -36 310 -47 541 -44 247 2 358 16 585 71 581 142 1095
490 1452 983 230 317 392 703 454 1081 38 235 40 573 5 805 -96 632 -434 1215
-936 1616 -78 63 -199 147 -290 201 -66 39 -298 158 -310 158 -4 0 -21 6 -38
14 -137 62 -421 138 -607 162 -25 3 -56 8 -70 10 -27 6 -456 14 -462 9z"/>
</g>
</svg>
